<svg height='100px' width='100px'  fill="#000000" xmlns:x="http://ns.adobe.com/Extensibility/1.0/" xmlns:i="http://ns.adobe.com/AdobeIllustrator/10.0/" xmlns:graph="http://ns.adobe.com/Graphs/1.0/" xmlns="http://www.w3.org/2000/svg" xmlns:xlink="http://www.w3.org/1999/xlink" version="1.1" x="0px" y="0px" viewBox="0 0 100 100" style="enable-background:new 0 0 100 100;" xml:space="preserve"><g><g i:extraneous="self"><g><path d="M5273.1,2400.1v-2c0-2.8-5-4-9.7-4s-9.7,1.3-9.7,4v2c0,1.8,0.7,3.6,2,4.9l5,4.9c0.3,0.3,0.4,0.6,0.4,1v6.4     c0,0.4,0.2,0.7,0.6,0.8l2.9,0.9c0.5,0.1,1-0.2,1-0.8v-7.2c0-0.4,0.2-0.7,0.4-1l5.1-5C5272.4,2403.7,5273.1,2401.9,5273.1,2400.1z      M5263.4,2400c-4.8,0-7.4-1.3-7.5-1.8v0c0.1-0.5,2.7-1.8,7.5-1.8c4.8,0,7.3,1.3,7.5,1.8C5270.7,2398.7,5268.2,2400,5263.4,2400z"></path><path d="M5268.4,2410.3c-0.6,0-1,0.4-1,1c0,0.6,0.4,1,1,1h4.3c0.6,0,1-0.4,1-1c0-0.6-0.4-1-1-1H5268.4z"></path><path d="M5272.7,2413.7h-4.3c-0.6,0-1,0.4-1,1c0,0.6,0.4,1,1,1h4.3c0.6,0,1-0.4,1-1C5273.7,2414.1,5273.3,2413.7,5272.7,2413.7z"></path><path d="M5272.7,2417h-4.3c-0.6,0-1,0.4-1,1c0,0.6,0.4,1,1,1h4.3c0.6,0,1-0.4,1-1C5273.7,2417.5,5273.3,2417,5272.7,2417z"></path></g><g><g><path d="M59.1,66.8c-2.8,1.4-5.9,2.2-9.1,2.2c-3.3,0-6.4-0.7-9.1-2.2c-5.9,1.5-10.5,6.6-11.3,12.9l-1.5,12.4      c-0.2,1.6,0.8,3.1,2.4,3.5c6.1,1.3,12.7,2,19.5,2c6.8,0,13.3-0.7,19.5-2c1.6-0.4,2.6-1.9,2.4-3.5l-1.5-12.4      C69.7,73.4,65.1,68.3,59.1,66.8z"></path></g><g><circle cx="50" cy="48.1" r="14.3"></circle></g><g><path d="M42.3,17.1c0.5,0.4,0.7,1.1,0.6,1.8l-1.3,5.5c-0.4,1.5,1.3,2.7,2.7,1.9l4.8-2.9c0.6-0.3,1.3-0.3,1.8,0l4.8,2.9      c1.3,0.8,3-0.4,2.7-1.9l-1.3-5.5c-0.2-0.6,0.1-1.3,0.6-1.8l4.3-3.7c1.2-1,0.6-3-1-3.1l-5.6-0.5c-0.7-0.1-1.2-0.5-1.5-1.1      l-2.2-5.2c-0.6-1.5-2.7-1.5-3.3,0l-2.2,5.2c-0.3,0.6-0.8,1-1.5,1.1l-5.6,0.5c-1.6,0.1-2.2,2.1-1,3.1L42.3,17.1z"></path></g><g><path d="M28.8,36.9l-1.3-5.5c-0.2-0.6,0.1-1.3,0.6-1.8l4.3-3.7c1.2-1,0.6-3-1-3.1l-5.6-0.5c-0.7-0.1-1.2-0.5-1.5-1.1l-2.2-5.2      c-0.6-1.5-2.7-1.5-3.3,0l-2.2,5.2c-0.3,0.6-0.8,1-1.5,1.1l-5.6,0.5c-1.6,0.1-2.2,2.1-1,3.1l4.3,3.7c0.5,0.4,0.7,1.1,0.6,1.8      L12,36.9c-0.4,1.5,1.3,2.7,2.7,1.9l4.8-2.9c0.6-0.3,1.3-0.3,1.8,0l4.8,2.9C27.5,39.6,29.2,38.4,28.8,36.9z"></path></g><g><path d="M91.5,26c1.2-1,0.6-3-1-3.1l-5.6-0.5c-0.7-0.1-1.2-0.5-1.5-1.1l-2.2-5.2c-0.6-1.5-2.7-1.5-3.3,0l-2.2,5.2      c-0.3,0.6-0.8,1-1.5,1.1l-5.6,0.5c-1.6,0.1-2.2,2.1-1,3.1l4.3,3.7c0.5,0.4,0.7,1.1,0.6,1.8l-1.3,5.5c-0.4,1.5,1.3,2.7,2.7,1.9      l4.8-2.9c0.6-0.3,1.3-0.3,1.8,0l4.8,2.9c1.3,0.8,3-0.4,2.7-1.9l-1.3-5.5c-0.2-0.6,0.1-1.3,0.6-1.8L91.5,26z"></path></g></g></g></g></svg>