<svg height='100px' width='100px'  fill="#000000" xmlns="http://www.w3.org/2000/svg" xmlns:xlink="http://www.w3.org/1999/xlink" viewBox="0 0 32 32" version="1.1" xml:space="preserve" style="" x="0px" y="0px" fill-rule="evenodd" clip-rule="evenodd" stroke-linejoin="round" stroke-miterlimit="1.41421"><g transform="matrix(1,0,0,1,-128,-448)"><g transform="matrix(1,0,0,1,128,448)"><rect x="0" y="0" width="32" height="32" style="" fill="none"></rect><g transform="matrix(1,0,0,1,-869.5,-171)"><path d="M899.5,173L899.5,195L887.5,195L879.5,201L879.5,195L871.5,195L871.5,173L899.5,173ZM892.5,178L892.5,176L890.5,176L890.5,178L887.5,178L887.5,180L892.456,180C892.405,180.609 892.309,181.213 892.165,181.808C891.953,182.685 891.638,183.535 891.235,184.341C891.109,184.191 890.987,184.038 890.868,183.884C890.329,183.183 889.855,182.434 889.445,181.651C889.427,181.615 889.408,181.579 889.389,181.543L887.611,182.457L887.67,182.572L887.733,182.692C888.393,183.926 889.192,185.096 890.141,186.128C889.943,186.398 889.734,186.66 889.515,186.913C889.094,187.4 888.636,187.854 888.146,188.271C887.933,188.452 887.712,188.624 887.488,188.792C887.355,188.888 887.355,188.888 887.221,188.982C887.085,189.075 887.085,189.075 886.948,189.166L888.052,190.834C888.758,190.366 889.422,189.843 890.036,189.26C890.607,188.718 891.133,188.13 891.609,187.504C892.11,187.901 892.645,188.254 893.216,188.542C893.525,188.697 893.843,188.829 894.169,188.944L894.831,187.056C894.621,186.983 894.416,186.901 894.216,186.805C893.675,186.545 893.174,186.206 892.711,185.823C893.296,184.781 893.75,183.666 894.052,182.507C894.266,181.684 894.4,180.846 894.461,180L895.5,180L895.5,178L892.5,178ZM879.5,179L879.5,179L878.181,179L873.895,189L876.071,189L876.5,188L876.929,187L882.071,187L882.929,189L885.105,189L880.819,179L879.5,179ZM877.786,185L881.214,185L879.5,181L877.786,185Z"></path></g></g></g></svg>